<svg x="0" y="0" width="700" height="350" viewBox="0 0 700 350" xmlns="http://www.w3.org/2000/svg" xmlns:xlink="http://www.w3.org/1999/xlink" xmlns:fi="http://pattern.flaticon.com/"><rect x="0px" y="0px" width="100%" height="100%" opacity="1" fill="#ffffff"/><defs><g transform="matrix(0.1171875 0 0 0.1171875 142 131)" id="L1_0"><path d="M397.454,7.444c-8.717,1.746-15.358,9.242-15.542,18.13c-0.145,7.008-4.933,11.716-24.87-0.487  c-5.008-3.065-11.14-3.756-16.671-1.787c-35.007,12.458-68.133,29.362-98.719,49.331c-10.988,7.174-16.735,20.285-14.024,33.124  c2.653,12.559-1.645,17.266-21.36,11.258c-10.859-3.309-22.664-0.526-31.057,7.118c-30.215,27.518-56.403,57.679-77.557,88.399  c-4.899,7.114-4.757,16.643,0.639,23.387c7.652,9.565,13.968,23.961-6.71,32.777c-4.156,1.773-7.871,2.18-11.192,1.54  c-8.946-1.726-17.894,3.209-21.489,11.581c-18.377,42.806-25.269,83.587-17.876,116.473c5.073,22.573,20.342,43.156,42.202,48.784  c47.184,12.144,91.755,2.505,132.922-20.855c7.341-4.166,12.179-11.788,12.381-20.227c0.317-13.239,12.352-14.024,21.391-12.73  c7.044,1.009,14.164-1.238,19.462-5.989c22.985-20.611,44.598-44.931,64.671-71.18c6.443-8.425,6.172-19.983-0.197-28.464  c-10.409-13.86-3.062-31.024,21.154-26.75c9.545,1.684,19.157-2.512,24.266-10.748c19.826-31.969,37.487-64.574,52.728-95.212  c3.043-6.118,2.164-13.379-2-18.798c-10.901-14.186,3.093-19.559,13.17-21.545c5.617-1.107,10.344-4.868,12.693-10.089  c27.005-60.025,41.81-103.554,41.81-103.554C463.386-1.526,429.826,0.959,397.454,7.444z" fill="#7cb777"/><path d="M450.715,38.263c-27.804,16.55-54.169,36.345-80.042,56.014  c-41.576,31.607-80.662,66.676-117.571,103.593c-27.418,27.423-53.286,56.651-77.178,87.198  c-17.08,21.838-33.685,44.122-48.903,67.308c-25.92,39.491-51.289,81.441-69.885,124.966c-3.735,8.304-7.471,16.608-11.206,24.912  c-3.743,8.32-13.521,12.03-21.841,8.288c-8.32-3.743-12.056-13.463-8.314-21.783c0,0,4.102-9.213,11.282-25.336  c19.484-43.756,44.265-85.736,71.039-125.383c16.693-24.719,34.881-49.006,53.826-72.313c25.229-30.948,52.401-60.459,81.325-87.98  c39.17-37.27,80.426-72.254,125.099-102.783c27.193-18.583,55.267-36.32,84.996-50.583c3.917-1.879,8.615-0.228,10.494,3.689  c1.763,3.673,0.42,8.032-2.983,10.111L450.715,38.263z" fill="#35925d"/></g><g transform="matrix(0.11718704551458359 0 0 0.11718704551458359 -8.999998092651367 200)" id="L1_1"><path d="M256.74,163.326c-1.251-1.922-3.313-3.166-5.597-3.376c-45.323-4.176-88.208,24.274-101.972,67.65   c-7.77,24.486-5.65,50.604,5.968,73.542c11.632,22.967,31.477,40.14,55.856,48.35l0.251,0.084c1.369,0.457,2.753,0.678,4.111,0.678   c4.222,0,8.176-2.137,10.557-5.942c3.124-4.993,2.426-11.42-1.697-15.63c-21.862-22.32-29.254-54.563-19.292-84.146   c6.981-20.731,21.593-37.561,41.143-47.387c1.765-0.887,3.109-2.436,3.74-4.308l7.755-23.029   C258.294,167.637,257.991,165.248,256.74,163.326z" fill="#7dc32e"/><path d="M421.423,26.684l-0.261-0.205c-26.048-20.316-58.46-29.423-91.28-25.642   c-32.773,3.777-62.236,19.972-82.959,45.601c-17.993,22.252-27.842,50.333-27.733,79.068c0.107,28.349,9.835,56.029,27.391,77.941   c1.424,1.777,3.578,2.811,5.853,2.811c0.016,0,0.033,0,0.049,0c2.294-0.015,4.455-1.079,5.865-2.888l19.526-25.036   c1.215-1.558,1.767-3.532,1.534-5.494c-3.432-28.998,4.565-57.644,22.52-80.663c25.619-32.847,66.964-48.321,107.891-40.389   c6.616,1.284,12.938-1.972,15.734-8.099C428.321,37.625,426.655,30.785,421.423,26.684z" fill="#a2db18"/><path d="M277.195,186.988c-18.427-21.184-43.927-35.695-71.802-40.86   c-28.254-5.235-57.643-0.555-82.748,13.178c-28.917,15.818-50.109,41.917-59.673,73.491c-9.577,31.612-6.401,65.134,8.952,94.411   l0.134,0.254c2.526,4.789,7.242,7.575,12.385,7.575c1.191,0,2.406-0.15,3.621-0.458c6.527-1.658,10.859-7.298,10.778-14.036   c-0.502-41.69,22.103-79.606,58.993-98.953c25.853-13.558,55.467-16.315,83.387-7.763c1.888,0.578,3.929,0.388,5.68-0.529   l28.119-14.746c2.031-1.065,3.463-3.001,3.888-5.255C279.332,191.043,278.701,188.719,277.195,186.988z" fill="#a2db18"/><path d="M268.115,159.764c-5.851-27.46-21.121-52.513-43-70.541c-22.176-18.274-50.149-28.424-78.766-28.581   c-0.235-0.001-0.465-0.002-0.7-0.002c-32.698,0-63.615,12.543-87.116,35.36c-23.699,23.009-37.169,53.87-37.929,86.881   l-0.007,0.326c-0.137,6.667,4.103,12.287,10.55,13.983c1.267,0.333,2.533,0.495,3.775,0.495c5.148,0,9.882-2.769,12.456-7.548   c19.767-36.708,57.93-58.925,99.562-57.958c29.186,0.672,56.424,12.614,76.7,33.626c1.372,1.421,3.249,2.245,5.224,2.29   l31.742,0.731c2.294,0.063,4.484-0.947,5.948-2.713S268.593,162.008,268.115,159.764z" fill="#7dc32e"/><path d="M490.909,165.011l-0.071-0.266c-8.521-31.917-28.884-58.734-57.337-75.511   c-28.418-16.757-61.684-21.612-93.674-13.669c-27.774,6.895-52.568,23.351-69.814,46.335   c-17.014,22.676-25.952,50.621-25.167,78.687c0.064,2.292,1.174,4.43,3.012,5.801c1.31,0.977,2.886,1.489,4.485,1.489   c0.646,0,1.296-0.083,1.934-0.254l30.676-8.19c1.909-0.509,3.539-1.752,4.538-3.457c14.753-25.198,38.411-43.222,66.616-50.752   c40.247-10.744,82.555,1.85,110.415,32.865c4.503,5.013,11.512,6.231,17.436,3.031   C489.826,177.953,492.622,171.492,490.909,165.011z" fill="#a2db18"/><path d="M400.244,240.198c-2.133-25.624-14.022-48.975-33.478-65.751   c-34.463-29.72-85.899-31.459-122.302-4.14c-1.834,1.376-2.938,3.517-2.996,5.81s0.937,4.486,2.7,5.954l18.678,15.543   c1.519,1.263,3.474,1.876,5.443,1.707c21.799-1.885,43.065,4.787,59.879,18.78c23.995,19.967,34.605,51.298,27.691,81.768   c-1.303,5.747,1.474,11.585,6.753,14.199c1.838,0.91,3.771,1.351,5.674,1.351c3.6,0,7.084-1.581,9.571-4.555l0.158-0.19   C394.487,290.883,402.381,265.854,400.244,240.198z" fill="#7dc32e"/><path d="M278.359,164.755c-0.819-1.909-2.394-3.392-4.349-4.097s-4.113-0.567-5.962,0.38l-35.325,18.093   c-1.834,0.939-3.201,2.592-3.779,4.569s-0.318,4.106,0.721,5.886c0.236,0.406,23.676,41.938,23.676,159.982   c0,60.119-17.923,97.214-32.958,117.747c-16.22,22.15-32.676,30.353-32.841,30.433c-3.142,1.519-4.823,5.006-4.05,8.412   c0.774,3.416,3.811,5.841,7.314,5.841h84.662c2.786,0,5.343-1.545,6.64-4.011c1.004-1.912,24.651-47.986,29.532-150.476   C316.523,254.959,279.92,168.391,278.359,164.755z" fill="#d47a3d"/><g><path d="M421.423,26.684l-0.261-0.205c-26.048-20.316-58.46-29.423-91.28-25.642    c-0.172,0.02-0.342,0.045-0.514,0.066c22.347,2.691,43.621,11.401,61.794,25.576l0.261,0.205    c5.232,4.102,6.898,10.941,4.13,17.007c-1.176,2.575-2.979,4.635-5.159,6.072c6.443,0.105,12.939,0.77,19.425,2.027    c6.616,1.284,12.938-1.972,15.734-8.099C428.321,37.625,426.655,30.785,421.423,26.684z" fill="#6aba0f"/><path d="M271.927,92.178c-17.954,23.019-25.951,51.666-22.52,80.663c0.232,1.962-0.319,3.936-1.534,5.494    l-9.968,12.781c2.636,4.275,5.524,8.399,8.675,12.332c1.424,1.777,3.578,2.811,5.853,2.811c0.016,0,0.033,0,0.049,0    c2.294-0.015,4.455-1.079,5.865-2.888l19.526-25.036c1.215-1.558,1.767-3.532,1.534-5.494    c-3.432-28.998,4.565-57.644,22.52-80.663c17.998-23.076,43.76-37.562,71.684-41.397    C334.752,45.482,296.252,60.992,271.927,92.178z" fill="#6aba0f"/></g><g><path d="M326.108,145.224c-28.205,7.53-51.863,25.555-66.616,50.752c-0.999,1.705-2.629,2.947-4.538,3.457    l-9.907,2.645c0.398,1.708,1.38,3.242,2.811,4.31c1.31,0.977,2.886,1.489,4.485,1.489c0.646,0,1.296-0.083,1.934-0.254    l30.676-8.19c1.909-0.509,3.539-1.752,4.538-3.457c14.753-25.198,38.411-43.222,66.616-50.752    c4.519-1.207,9.065-2.103,13.613-2.727C355.432,140.524,340.637,141.346,326.108,145.224z" fill="#6aba0f"/><path d="M490.909,165.011l-0.071-0.266c-8.521-31.917-28.884-58.734-57.337-75.511    c-23.913-14.1-51.258-19.771-78.388-16.483c16.884,2.058,33.318,7.597,48.388,16.483c28.453,16.777,48.815,43.594,57.337,75.511    l0.071,0.266c0.662,2.503,0.644,5.001,0.043,7.31c1.914,1.847,3.774,3.768,5.571,5.769c4.503,5.013,11.512,6.231,17.436,3.031    C489.826,177.953,492.622,171.492,490.909,165.011z" fill="#6aba0f"/></g><path d="M400.244,240.198c-2.133-25.624-14.022-48.975-33.478-65.751   c-22.083-19.044-51.134-26.578-78.735-22.36c17.627,2.705,34.608,10.177,48.735,22.36c19.455,16.776,31.345,40.127,33.478,65.751   c1.762,21.158-3.304,41.886-14.369,59.605c-0.005,0.022-0.009,0.044-0.014,0.066c-1.303,5.747,1.474,11.585,6.753,14.199   c1.838,0.91,3.771,1.351,5.674,1.351c3.6,0,7.084-1.581,9.571-4.555l0.158-0.19C394.487,290.883,402.381,265.854,400.244,240.198z" fill="#6aba0f"/><path d="M278.359,164.755c-0.819-1.909-2.394-3.392-4.349-4.097s-4.113-0.567-5.962,0.38l-17.552,8.99   c8.058,20.63,35.406,97.963,31.142,187.485c-4.881,102.49-28.528,148.564-29.532,150.476c-1.297,2.466-3.854,4.011-6.64,4.011h30   c2.786,0,5.343-1.545,6.64-4.011c1.004-1.912,24.651-47.986,29.532-150.476C316.523,254.959,279.92,168.391,278.359,164.755z" fill="#b7692e"/><path d="M237.97,165.053c-19.478,0-35.323,15.846-35.323,35.324s15.846,35.324,35.323,35.324   s35.323-15.846,35.323-35.324S257.448,165.053,237.97,165.053z" fill="#c4735d"/><path d="M279.706,137.232c-19.476,0.229-35.135,16.26-34.906,35.736   c0.229,19.476,16.26,35.135,35.736,34.906c19.476-0.229,35.136-16.26,34.907-35.736S299.182,137.003,279.706,137.232z" fill="#c4735d"/><path d="M279.706,137.232c-5.211,0.061-10.143,1.263-14.577,3.35c11.859,5.59,20.149,17.591,20.313,31.557   c0.168,14.265-8.193,26.673-20.33,32.387c4.679,2.206,9.913,3.414,15.423,3.35c19.476-0.229,35.135-16.26,34.907-35.736   S299.182,137.003,279.706,137.232z" fill="#b1624e"/><path d="M237.97,165.053c-5.361,0-10.444,1.206-15,3.353c11.997,5.651,20.323,17.855,20.323,31.971   s-8.326,26.32-20.323,31.971c4.556,2.146,9.639,3.353,15,3.353c19.478,0,35.323-15.846,35.323-35.324   S257.448,165.053,237.97,165.053z" fill="#b1624e"/><path d="M261.828,289.117c-3.053,0-5.768-2.174-6.345-5.284c-0.65-3.508,1.666-6.88,5.175-7.53l31.949-5.924   c3.503-0.649,6.88,1.666,7.53,5.175c0.651,3.508-1.666,6.88-5.174,7.53l-31.949,5.924   C262.615,289.081,262.218,289.117,261.828,289.117z" fill="#b7692e"/><path d="M263.597,333.725c-3.298,0-6.113-2.513-6.425-5.862c-0.331-3.553,2.281-6.701,5.834-7.032   l33.678-3.136c3.559-0.332,6.7,2.281,7.032,5.834c0.331,3.553-2.281,6.701-5.834,7.032l-33.678,3.136   C264,333.716,263.797,333.725,263.597,333.725z" fill="#b7692e"/><path d="M263.601,379.809c-3.493,0-6.367-2.787-6.456-6.298c-0.09-3.567,2.729-6.531,6.296-6.621   l35.176-0.884c3.607-0.088,6.532,2.729,6.621,6.296c0.089,3.567-2.73,6.531-6.297,6.621l-35.176,0.884   C263.712,379.808,263.656,379.809,263.601,379.809z" fill="#b7692e"/><path d="M254.987,426.811c-3.493,0-6.367-2.787-6.456-6.298c-0.09-3.567,2.729-6.531,6.296-6.621   l35.176-0.884c3.551-0.079,6.531,2.729,6.621,6.296c0.089,3.567-2.73,6.531-6.297,6.621l-35.176,0.884   C255.096,426.81,255.041,426.811,254.987,426.811z" fill="#b7692e"/><path d="M282.356,473.335c-0.018,0-0.036,0-0.055,0l-48.802-0.405c-3.568-0.029-6.436-2.946-6.406-6.514   c0.029-3.55,2.916-6.407,6.459-6.407c0.019,0,0.037,0,0.055,0l48.802,0.405c3.568,0.029,6.436,2.946,6.407,6.514   C288.786,470.478,285.899,473.335,282.356,473.335z" fill="#b7692e"/><path d="M233.121,113.569c-19.478,0-35.324,15.846-35.324,35.324s15.846,35.324,35.324,35.324   s35.324-15.846,35.324-35.324S252.599,113.569,233.121,113.569z" fill="#c4735d"/><path d="M233.121,113.569c-5.361,0-10.444,1.206-15,3.353c11.997,5.651,20.324,17.855,20.324,31.971   s-8.327,26.32-20.324,31.971c4.556,2.146,9.639,3.353,15,3.353c19.478,0,35.324-15.846,35.324-35.324   S252.599,113.569,233.121,113.569z" fill="#b1624e"/></g><g transform="matrix(0.1712905615568161 0 0 0.1712905615568161 37 19)" id="L1_2"><path d="M260.303,155.881c0,5-0.799,12.098-2.288,18.035c0.797-4.433,1.22-9.346,1.22-14.026   c0-34.08-21.697-61.968-48.369-61.968c-9.241,0-18.205,3.288-25.977,9.65c-0.015,1.024-0.018,1.942,0.018,2.561   c7.118-5.2,15.604-10.194,24.193-10.194c25.399,0,46.062,24.811,46.062,55.321c0,22.923-11.606,42.815-28.455,51.148   c0.938,1.906,1.821,4.264,2.658,6.239c18.431-9.141,30.948-30.765,30.948-56.765C260.313,121.881,260.303,121.881,260.303,155.881z   " fill="#84bd93"/><path d="M173.572,135.881c-3.966-19-1.976-61.235-2.269-58.977l-29.202-8.687l10.271,18.642   c0.757,1.203,0.886,3.548,0.889,3.582c1.819,16.469,1.198,31.441-0.845,45.441H173.572z" fill="#84bd93"/><path d="M202.461,196.171c-1.902-2.183-12.601-15.307-21.245-37.039c0.003,0.009,0.007-0.252,0.01-0.252    H146.52c-8.947,28-22.637,44.538-24.803,47.028c-13.818,16.89-21.725,40.741-21.725,65.618c0,23.228,3.02,39.471,10.84,50.486    c0.669,0.634,1.078,1.375,1.078,2.165c0-0.001,0,0.027,0,0.027c3,2.727,5.289,4.939,8.114,7c1.37,1,2.921,3.677,3.494,3.677    h70.536c3.146,0,5.753-2.177,6.144-5.22c-0.545-3.209,0.688-6.403,3.381-8.368c14.249-10.389,20.601-28.768,20.601-59.695    C224.18,236.722,216.275,213.061,202.461,196.171z M127.438,298.395c1.956,3.663,0.571,8.217-3.092,10.172    c-1.127,0.601-2.339,0.886-3.532,0.887c-2.687,0-5.286-1.443-6.639-3.98c-24.888-46.636-0.778-86.126,0.261-87.785    c2.204-3.52,6.841-4.586,10.361-2.382c3.512,2.2,4.58,6.826,2.392,10.342C126.317,227.067,106.77,259.667,127.438,298.395z" fill="#fdd44b"/><path d="M166.888,23.881 151.846,23.881 153.39,49.066 165.417,51.894z" fill="#ef8829"/><path d="M127.19,225.65c2.188-3.517,1.12-8.143-2.392-10.342c-3.52-2.205-8.157-1.138-10.362,2.382   c-1.039,1.658-25.149,41.148-0.26,87.785c1.353,2.536,3.951,3.98,6.638,3.98c1.194-0.001,2.406-0.286,3.533-0.887   c3.663-1.955,5.048-6.509,3.092-10.172C106.77,259.667,126.316,227.068,127.19,225.65z" fill="#3f2d20"/><path d="M211.944,77.746c-9.231,0-18.196,2.376-26.419,6.94c0.562-6.274,1.474-12.607,2.784-18.996   c0.787-3.844-1.513-7.646-5.283-8.733l-2.784-0.802l2.621-48.229c0.113-2.061-0.628-4.079-2.047-5.577   C179.396,0.849,177.422,0,175.358,0h-38.434c-2.094,0-4.091,0.872-5.514,2.408c-1.423,1.535-2.141,3.594-1.982,5.681l2.605,34.174   l-13.124-3.782c-2.917-0.837-6.051,0.156-7.949,2.523c-1.897,2.369-2.184,5.646-0.728,8.308l18.199,33.269   c5.826,57.079-20.981,94.74-27.011,102.399c-16.834,19.648-26.485,47.563-26.485,76.662c0,34.402,7.451,56.13,24.066,69.788   c1.186,10.592,10.195,18.851,21.096,18.851h73.958c10.901,0,19.909-8.26,21.096-18.85c16.616-13.664,24.065-35.391,24.065-69.789   c0-12.104-1.681-23.994-4.847-35.174c11.236-5.15,21.216-14.194,28.43-25.917c8.21-13.343,12.55-29.237,12.55-45.964   C275.347,112.217,246.904,77.746,211.944,77.746z M200.198,329.844c-0.39,3.044-2.997,5.404-6.144,5.404h-73.958   c-3.147,0-5.754-2.36-6.144-5.404c0.54-3.209-0.697-6.499-3.389-8.466c-14.243-10.387-20.595-28.81-20.595-59.736   c0-24.876,7.907-48.588,21.725-65.478c2.166-2.49,15.856-18.951,24.803-46.749h41.123c8.953,27.786,22.663,44.257,24.84,46.756   c13.815,16.89,21.719,40.596,21.719,65.471c0,30.928-6.352,49.352-20.6,59.741C200.886,323.349,199.652,326.635,200.198,329.844z    M187.387,126.573c5.781-7.355,13.599-11.621,21.713-11.621c17.108,0,31.028,18.077,31.028,40.297   c0,17.293-8.809,32.59-21.014,38.103c-2.028-2.968-4.182-5.811-6.483-8.489c-3.016-3.825-10.811-14.571-17.328-30.957   C191.761,145.003,189.132,135.881,187.387,126.573z M145.035,15.034h22.386l-2.004,36.848l-17.967-5.178L145.035,15.034z    M172.306,69.514c-4.168,24.896-2.7,46.683,1.266,64.867h-33.031c3.419-15.682,4.988-34.047,2.697-54.782   c-0.003-0.033-0.131-1.697-0.889-2.9l-10.271-18.777L172.306,69.514z M229.365,212.227c-0.838-1.975-1.721-3.92-2.658-5.826   c16.848-8.332,28.454-28.229,28.454-51.152c0-30.51-20.663-55.331-46.062-55.331c-8.589,0-17.075,4.973-24.193,10.174   c-0.091-1.551,0.067-5.212,0.023-6.77c0.136-0.101,0.278-0.19,0.409-0.301c7.914-6.699,17.115-10.24,26.605-10.24   c26.671,0,48.369,27.726,48.369,61.807C260.313,180.181,247.796,203.086,229.365,212.227z" fill="#3f2d20"/></g><g transform="matrix(0.1171875 0 0 0.1171875 222 184)" id="L1_3"><path d="m333.3125 354.460938c7.113281-7.953126 11.304688-18.402344 11.304688-29.539063 0-14.996094-7.601563-28.742187-19.695313-36.835937v-80.449219c0-22.875-7.730469-45.417969-21.777344-63.472657l-50.257812-64.617187c-2.796875-3.597656-7.097657-5.699219-11.65625-5.699219h-137.847657c-4.554687 0-8.859374 2.101563-11.65625 5.699219l-50.257812 64.617187c-14.042969 18.054688-21.777344 40.597657-21.777344 63.472657v80.449219c-12.089844 8.09375-19.691406 21.839843-19.691406 36.835937 0 11.136719 4.191406 21.585937 11.300781 29.539063-7.109375 7.957031-11.300781 18.402343-11.300781 29.539062s4.191406 21.582031 11.300781 29.539062c-7.109375 7.953126-11.300781 18.402344-11.300781 29.539063 0 15.882813 8.484375 30.3125 21.804688 38.167969 5.75 18.023437 22.589843 30.753906 42.195312 30.753906h216.617188c19.601562 0 36.441406-12.730469 42.195312-30.753906 13.320312-7.855469 21.804688-22.285156 21.804688-38.167969 0-11.136719-4.191407-21.585937-11.304688-29.539063 7.113281-7.957031 11.304688-18.402343 11.304688-29.539062s-4.191407-21.582031-11.304688-29.539062zm-57.621094 54.15625c0 21.714843-17.667968 39.382812-39.382812 39.382812-21.71875 0-39.386719-17.667969-39.386719-39.382812v-187.078126c0-21.71875 17.667969-39.386718 39.386719-39.386718 21.714844 0 39.382812 17.667968 39.382812 39.386718zm0 0" fill="#fcf2b6"/><path d="m132.921875 201.847656h-98.460937c-8.15625 0-14.769532 6.609375-14.769532 14.769532v78.765624c0 8.160157 6.613282 14.769532 14.769532 14.769532h98.460937c8.15625 0 14.769531-6.609375 14.769531-14.769532v-78.765624c0-8.160157-6.613281-14.769532-14.769531-14.769532zm0 0" fill="#ffa000"/><path d="m152.617188 369.230469h-68.925782c-8.15625 0-14.769531-6.613281-14.769531-14.769531s6.613281-14.769532 14.769531-14.769532h68.925782c8.15625 0 14.765624 6.613282 14.765624 14.769532s-6.609374 14.769531-14.765624 14.769531zm0 0" fill="#fdd835"/><path d="m152.617188 428.308594h-68.925782c-8.15625 0-14.769531-6.613282-14.769531-14.769532s6.613281-14.769531 14.769531-14.769531h68.925782c8.15625 0 14.765624 6.613281 14.765624 14.769531s-6.609374 14.769532-14.765624 14.769532zm0 0" fill="#fdd835"/><path d="m241.230469 0h-137.847657c-24.429687 0-44.304687 19.875-44.304687 44.308594v14.769531c0 24.429687 19.875 44.304687 44.304687 44.304687h137.847657c24.429687 0 44.308593-19.875 44.308593-44.304687v-14.769531c0-24.433594-19.878906-44.308594-44.308593-44.308594zm0 0" fill="#5f69e3"/><path d="m333.3125 354.460938c7.113281-7.953126 11.304688-18.402344 11.304688-29.539063 0-14.996094-7.601563-28.742187-19.695313-36.835937v-80.449219c0-22.875-7.730469-45.417969-21.777344-63.472657l-50.257812-64.617187c-2.796875-3.597656-7.097657-5.699219-11.65625-5.699219h-68.921875v438.152344h108.308594c19.601562 0 36.441406-12.730469 42.195312-30.753906 13.320312-7.855469 21.804688-22.285156 21.804688-38.167969 0-11.136719-4.191407-21.585937-11.304688-29.539063 7.113281-7.957031 11.304688-18.402343 11.304688-29.539062s-4.191407-21.582031-11.304688-29.539062zm-57.621094 54.15625c0 21.714843-17.667968 39.382812-39.382812 39.382812-21.71875 0-39.386719-17.667969-39.386719-39.382812v-187.078126c0-21.71875 17.667969-39.386718 39.386719-39.386718 21.714844 0 39.382812 17.667968 39.382812 39.386718zm0 0" fill="#ffde91"/><path d="m241.230469 0h-68.921875v103.382812h68.921875c24.429687 0 44.308593-19.875 44.308593-44.304687v-14.769531c0-24.433594-19.878906-44.308594-44.308593-44.308594zm0 0" fill="#3440db"/></g><g transform="matrix(0.1171875 0 0 0.1171875 111 284)" id="L1_4"><g><path d="m35.813 270.292c-14.256 0-25.813 11.557-25.813 25.813v.342c0 14.256 11.557 25.813 25.813 25.813h70.548v-51.968z" fill="#ffe4dc"/><path d="m106.361 270.292h53.477v51.968h-53.477z" fill="#ffad95"/><g><path d="m310.174 395.805h-50.794.477c-33.743 0-61.098-27.354-61.098-61.098v-39.953h303.241v39.953c0 33.743-27.354 61.098-61.098 61.098h.477-40.793" fill="#a7bdcd"/><path d="m234.712 294.755h231.284c6.922-21.945 6.432-46.23-1.681-67.786-8.689-23.104-42.631-57.358-42.631-57.358-1.379-.458-10.589 60.078-37.557 44.28-12.233-7.166-9.131-29.762-5.587-42.188 8.65-30.323-11.884-57.165-11.609-55.429 2.538 15.937-9.211 32.293-18.918 43.986-9.798 11.807-21.024 22.543-29.159 35.555-5.148 8.242-8.788 17.312-10.955 26.741-7.109-5.303-13.39-12.097-16.597-20.433-1.483-3.854-5.846-18.573-3.565-25.048.238-.671-70.589 41.526-54.505 112.326.411 1.803.904 3.593 1.48 5.354z" fill="#ff9c9b"/></g></g><g><path d="m355.56 405.809c-4.17 0-7.989-2.701-9.402-6.615-1.376-3.81-.254-8.242 2.808-10.909 3.24-2.822 8.04-3.264 11.731-1.056 3.564 2.132 5.469 6.374 4.683 10.455-.894 4.647-5.078 8.125-9.82 8.125z"/><path d="m502 284.755h-23.189c3.913-20.53 2.179-41.873-5.136-61.306-9.334-24.819-43.44-59.417-44.887-60.877-1.107-1.117-2.462-1.958-3.954-2.453-2.62-.869-5.526-.611-7.953.701-4.064 2.198-4.903 5.362-6.426 11.106-6.776 25.563-12.711 32.788-16.497 34.348-.535.221-1.789.738-4.777-1.012-4.638-2.717-5.097-16.541-1.025-30.816 9.439-33.089-10.07-62.338-14.964-66.109-3.331-2.566-7.786-2.855-11.352-.737-3.524 2.092-5.429 6.199-4.785 10.247 1.9 11.931-8.642 26.274-16.738 36.026-2.994 3.608-6.097 7.079-9.382 10.753-7.156 8.004-14.556 16.281-20.563 25.89-2.656 4.251-4.972 8.725-6.938 13.391-1.163-1.757-2.097-3.551-2.8-5.378-2.027-5.265-4.129-15.384-3.442-18.202 1.372-3.984.097-8.412-3.193-11.056-5.617-4.513-11.296-.963-13.433.373-3.708 2.318-23.005 14.996-38.737 36.977-17.249 24.099-23.986 50.976-19.672 78.134h-52.319v-14.463c0-5.523-4.477-10-10-10h-124.025c-19.747 0-35.813 16.065-35.813 35.813v.342c0 19.748 16.066 35.813 35.813 35.813h124.025c5.523 0 10-4.477 10-10v-17.505h18.92v29.953c0 38.947 31.482 70.681 70.333 71.094.095.002.191.004.287.004h50.794c5.523 0 10-4.477 10-10s-4.477-10-10-10h-50.317c-28.175 0-51.098-22.922-51.098-51.098v-29.953h283.243v29.953c0 28.175-22.922 51.098-51.098 51.098h-40.316c-5.523 0-10 4.477-10 10s4.477 10 10 10h40.793c.096 0 .192-.001.287-.004 38.852-.414 70.334-32.147 70.334-71.095v-39.953c0-5.522-4.477-9.999-10-9.999zm-482 11.692v-.342c0-8.719 7.094-15.813 15.813-15.813h60.547v31.968h-60.547c-8.719 0-15.813-7.094-15.813-15.813zm129.838 15.813h-33.478v-31.968h33.478zm92.63-27.505c-4.836-24.391 1.178-47.779 17.896-69.554 6.133-7.988 12.876-14.573 18.61-19.471 1.356 5.667 2.961 9.892 2.997 9.983 3.572 9.284 10.284 17.647 19.951 24.858 2.709 2.021 6.254 2.536 9.426 1.372 3.172-1.165 5.541-3.853 6.298-7.146 1.972-8.577 5.233-16.545 9.689-23.68 5.098-8.154 11.614-15.442 18.513-23.159 3.261-3.647 6.633-7.419 9.861-11.31 4.886-5.886 10.007-12.601 14.034-19.895 1.247 6.759 1.406 14.412-.817 22.208-2.73 9.571-10.068 41.717 10.148 53.56 9.543 5.59 17.506 4.307 22.506 2.247 12.277-5.059 19.536-19.655 24.666-35.522 10.776 12.259 24.18 29.2 28.711 41.248 6.466 17.18 7.628 36.192 3.417 54.264h-215.906z"/></g></g><g transform="matrix(0.1171875 0 0 0.1171875 222 -7)" id="L1_5"><path d="M438.4,329.6C438.4,430.933,356.267,512,256,512S73.6,430.933,73.6,329.6S256,0,256,0  S438.4,229.333,438.4,329.6z" fill="#84dbff"/><path d="M256,464c-73.6,0-134.4-59.733-134.4-134.4c0-8.533,7.467-16,16-16s16,7.467,16,16  c0,56.533,45.867,102.4,102.4,102.4c8.533,0,16,7.467,16,16S264.533,464,256,464z" fill="#ffffff"/></g><g transform="matrix(0.1171875 0 0 0.1171875 281 106)" id="L1_6"><path d="m391.03125 35.515625h-59.03125c-8.265625 0-14.96875 6.703125-14.96875 14.96875v18.066406c0 8.265625 6.703125 14.96875 14.96875 14.96875h59.03125c8.265625 0 14.96875-6.703125 14.96875-14.96875v-18.066406c0-8.265625-6.703125-14.96875-14.96875-14.96875zm0 0" fill="#ffc15a"/><path d="m285 51.515625h32.03125v32h-32.03125c-8.835938 0-16-7.160156-16-16 0-8.835937 7.164062-16 16-16zm0 0" fill="#aac0c1"/><path d="m480 328.484375c0 26.507813-21.492188 48-48 48s-48-21.492187-48-48c0-26.511719 21.492188-48 48-48s48 21.488281 48 48zm0 0" fill="#aac0c1"/><path d="m502.128906 296.453125h-141.722656c-6.96875 12.375-20.066406 20.03125-34.265625 20.03125h-316.011719v-7.558594c0-78.648437 63.757813-142.40625 142.40625-142.40625h70.933594c11.132812 0 20.15625 9.023438 20.15625 20.15625v89.808594h53.214844c18.066406 0 34.710937-9.820313 43.449218-25.636719 4.050782-7.332031 6.183594-15.574218 6.191407-23.953125l.144531-143.378906h35.5l27.664062 124.984375h4.382813c48.578125 0 87.957031 39.378906 87.957031 87.953125zm0 0" fill="#ffc15a"/><path d="m172 328.484375c0 26.507813-21.492188 48-48 48s-48-21.492187-48-48c0-26.511719 21.492188-48 48-48s48 21.488281 48 48zm0 0" fill="#aac0c1"/><path d="m198.027344 316.484375c0-40.886719-33.140625-74.03125-74.027344-74.03125-17.234375 0-33.09375 5.890625-45.675781 15.769531-.003907.003906-.007813.007813-.011719.007813-17.257812 13.554687-28.339844 34.609375-28.339844 58.253906zm0 0" fill="#ffe6c0"/><path d="m446 79.148438h-20c-11.046875 0-20-8.953126-20-20 0-11.046876 8.953125-20 20-20h20zm0 0" fill="#eff3f3"/><path d="m93.984375 10.503906h64.507813c11.046874 0 20 8.953125 20 20v116c0 11.042969-8.953126 20-20 20h-128.492188c-11.046875 0-20-8.957031-20-20v-52.019531c0-46.382813 37.601562-83.980469 83.984375-83.980469zm0 0" fill="#ff6977"/><path d="m234.992188 166.503906h-36.5c-11.042969 0-20-8.957031-20-20 0-11.046875 8.957031-20 20-20h36.5c11.046874 0 20 8.953125 20 20 0 11.042969-8.953126 20-20 20zm0 0" fill="#aac0c1"/><path d="m218.53125 366.453125c-2.632812 0-5.210938 1.070313-7.070312 2.929687-1.859376 1.859376-2.929688 4.441407-2.929688 7.070313s1.070312 5.210937 2.929688 7.070313c1.859374 1.859374 4.4375 2.929687 7.070312 2.929687 2.628906 0 5.207031-1.070313 7.070312-2.929687 1.859376-1.859376 2.929688-4.429688 2.929688-7.070313 0-2.628906-1.070312-5.210937-2.929688-7.070313-1.863281-1.859374-4.441406-2.929687-7.070312-2.929687zm0 0"/><path d="m417.707031 198.566406-23.304687-105.285156c6.289062-.851562 11.835937-4.050781 15.738281-8.683594 4.605469 2.878906 10.039063 4.550782 15.859375 4.550782h20c5.523438 0 10-4.476563 10-10v-40c0-5.523438-4.476562-10-10-10h-20c-5.992188 0-11.578125 1.773437-16.269531 4.816406-4.578125-5.175782-11.261719-8.449219-18.699219-8.449219h-59.03125c-10.605469 0-19.683594 6.652344-23.296875 16h-23.703125c-14.335938 0-26 11.664063-26 26s11.664062 26 26 26h51.472656v20.152344c0 5.523437 4.476563 10 10 10 5.523438 0 10-4.476563 10-10v-20.152344h17.5l25.101563 113.417969-47.507813 84.617187c-5.191406 9.210938-14.980468 14.933594-25.554687 14.933594h-118.597657c-4.964843-41.636719-40.464843-74.03125-83.414062-74.03125-19.003906 0-36.933594 6.191406-51.851562 17.902344-.019532.015625-.039063.03125-.058594.046875-17.761719 13.96875-28.925782 34.015625-31.527344 56.082031h-20.539062c1.304687-71.890625 60.191406-129.96875 132.382812-129.96875h70.9375c5.597656 0 10.15625 4.558594 10.15625 10.160156v89.808594c0 5.523437 4.476562 10 10 10h53.210938c21.707031 0 41.710937-11.804687 52.203124-30.800781 4.855469-8.789063 7.429688-18.742188 7.4375-28.777344l.050782-33.222656c.007812-5.523438-4.464844-10.007813-9.988282-10.015625-.003906 0-.007812 0-.011718 0-5.515625 0-9.992188 4.46875-10 9.984375l-.050782 33.230468c-.003906 6.671876-1.714843 13.289063-4.941406 19.128907-6.976562 12.625-20.273437 20.46875-34.699218 20.46875h-43.210938v-79.808594c0-5.121094-1.289062-9.949219-3.550781-14.179687 8.984375-5.191407 15.046875-14.894532 15.046875-25.992188 0-16.542969-13.460938-30-30-30h-36.5c-3.507813 0-6.871094.609375-10 1.71875v-87.71875c0-16.542969-13.460938-30-30-30h-64.511719c-46.765625 0-85.65625 34.335938-92.804687 79.117188-.300782.953124-.464844 1.964843-.464844 3.015624 0 .0625.007812.121094.007812.179688-.476562 3.828125-.722656 7.722656-.722656 11.671875v52.019531c0 15.019532 11.097656 27.496094 25.523438 29.664063l22.144531 22.144531c-29.339844 27.796875-47.667969 67.101562-47.667969 110.613281v7.558594c0 5.523437 4.476562 10 10 10h56.199219c-.128907.644531-.199219 1.316406-.199219 2 0 14.511719 5.371094 27.789063 14.214844 37.96875h-70.214844c-5.523438 0-10 4.480469-10 10 0 5.523437 4.476562 10 10 10h112.84375c.386719.011719.769531.03125 1.15625.03125 31.980469 0 58-26.019531 58-58 0-.683594-.070312-1.355469-.199219-2h144.210938c15.746093 0 30.460937-7.546875 39.683593-20.03125h12.664063c-2.847656 6.929687-4.359375 14.398437-4.359375 22.03125 0 14.511719 5.371094 27.789063 14.214844 37.96875h-129.683594c-5.523438 0-10 4.480469-10 10 0 5.523437 4.476562 10 10 10h172.3125c.386719.011719.769531.03125 1.15625.03125 31.980469 0 58-26.019531 58-58 0-7.632813-1.511719-15.101563-4.359375-22.03125h16.359375c5.523438 0 10-4.476563 10-10 0-52.785156-41.972656-95.953125-94.292969-97.886719zm-219.210937-62.0625h36.5c5.511718 0 10 4.484375 10 10 0 5.511719-4.488282 10-10 10h-36.5c-5.515625 0-10-4.488281-10-10 0-5.515625 4.484375-10 10-10zm-178.496094-42.019531c0-.617187.03125-1.230469.046875-1.847656h109.425781c5.523438 0 10-4.476563 10-10 0-5.523438-4.476562-10-10-10h-106.175781c9.34375-30.164063 37.496094-52.132813 70.6875-52.132813h64.507813c5.515624 0 10 4.484375 10 10v116c0 5.511719-4.484376 10-10 10h-128.488282s-.003906 0-.007812 0c-5.511719 0-9.996094-4.488281-9.996094-10zm34.144531 82.019531h22.882813c-4.804688 2.742188-9.441406 5.746094-13.902344 8.980469zm107.855469 151.980469c0 20.824219-16.839844 37.78125-37.613281 37.988281-.128907-.003906-.257813-.019531-.386719-.019531h-1.152344c-20.421875-.613281-36.847656-17.402344-36.847656-37.96875 0-.683594-.070312-1.355469-.199219-2h76.398438c-.128907.644531-.199219 1.316406-.199219 2zm-101.257812-22c2.476562-15.886719 10.820312-30.238281 23.707031-40.359375.03125-.019531.058593-.046875.089843-.066406 11.351563-8.898438 24.996094-13.605469 39.460938-13.605469 31.90625 0 58.433594 23.457031 63.25 54.03125zm365.257812-257.335937h10v20h-10c-5.515625 0-10-4.484376-10-10 0-5.511719 4.484375-10 10-10zm-147 18.367187c0-3.308594 2.691406-6 6-6h22.03125v7.03125c0 1.703125.171875 3.363281.496094 4.96875h-22.527344c-3.308594 0-6-2.691406-6-6zm67.472656 6h-14.472656c-2.738281 0-4.96875-2.226563-4.96875-4.96875v-18.0625c0-2.738281 2.230469-4.96875 4.96875-4.96875h59.03125c2.738281 0 4.96875 2.230469 4.96875 4.96875v18.0625c0 2.742187-2.230469 4.96875-4.96875 4.96875zm123.527344 254.96875c0 20.824219-16.839844 37.78125-37.613281 37.988281-.128907-.003906-.257813-.019531-.386719-.019531h-1.152344c-20.421875-.613281-36.847656-17.402344-36.847656-37.96875 0-7.945313 2.476562-15.625 7.039062-22.03125h61.921876c4.5625 6.40625 7.039062 14.085937 7.039062 22.03125zm-92.636719-42.03125 38.132813-67.917969c38.941406.714844 71.003906 30.109375 75.863281 67.917969zm0 0"/><path d="m346.472656 163.667969c5.523438 0 10-4.476563 10-10 0-5.523438-4.476562-10-10-10h-.035156c-5.523438 0-9.984375 4.476562-9.984375 10 0 5.523437 4.496094 10 10.019531 10zm0 0"/></g></defs><g fi:class="KUsePattern"><pattern id="pattern_L1_0" width="350" height="350" patternUnits="userSpaceOnUse"><use xlink:href="#L1_0" x="-350" y="-350"/><use xlink:href="#L1_0" x="0" y="-350"/><use xlink:href="#L1_0" x="350" y="-350"/><use xlink:href="#L1_0" x="-350" y="0"/><use xlink:href="#L1_0" x="0" y="0"/><use xlink:href="#L1_0" x="350" y="0"/><use xlink:href="#L1_0" x="-350" y="350"/><use xlink:href="#L1_0" x="0" y="350"/><use xlink:href="#L1_0" x="350" y="350"/></pattern><rect x="0" y="0" width="100%" height="100%" fill="url(#pattern_L1_0)"/></g><g fi:class="KUsePattern"><pattern id="pattern_L1_1" width="350" height="350" patternUnits="userSpaceOnUse"><use xlink:href="#L1_1" x="-350" y="-350"/><use xlink:href="#L1_1" x="0" y="-350"/><use xlink:href="#L1_1" x="350" y="-350"/><use xlink:href="#L1_1" x="-350" y="0"/><use xlink:href="#L1_1" x="0" y="0"/><use xlink:href="#L1_1" x="350" y="0"/><use xlink:href="#L1_1" x="-350" y="350"/><use xlink:href="#L1_1" x="0" y="350"/><use xlink:href="#L1_1" x="350" y="350"/></pattern><rect x="0" y="0" width="100%" height="100%" fill="url(#pattern_L1_1)"/></g><g fi:class="KUsePattern"><pattern id="pattern_L1_2" width="350" height="350" patternUnits="userSpaceOnUse"><use xlink:href="#L1_2" x="-350" y="-350"/><use xlink:href="#L1_2" x="0" y="-350"/><use xlink:href="#L1_2" x="350" y="-350"/><use xlink:href="#L1_2" x="-350" y="0"/><use xlink:href="#L1_2" x="0" y="0"/><use xlink:href="#L1_2" x="350" y="0"/><use xlink:href="#L1_2" x="-350" y="350"/><use xlink:href="#L1_2" x="0" y="350"/><use xlink:href="#L1_2" x="350" y="350"/></pattern><rect x="0" y="0" width="100%" height="100%" fill="url(#pattern_L1_2)"/></g><g fi:class="KUsePattern"><pattern id="pattern_L1_3" width="350" height="350" patternUnits="userSpaceOnUse"><use xlink:href="#L1_3" x="-350" y="-350"/><use xlink:href="#L1_3" x="0" y="-350"/><use xlink:href="#L1_3" x="350" y="-350"/><use xlink:href="#L1_3" x="-350" y="0"/><use xlink:href="#L1_3" x="0" y="0"/><use xlink:href="#L1_3" x="350" y="0"/><use xlink:href="#L1_3" x="-350" y="350"/><use xlink:href="#L1_3" x="0" y="350"/><use xlink:href="#L1_3" x="350" y="350"/></pattern><rect x="0" y="0" width="100%" height="100%" fill="url(#pattern_L1_3)"/></g><g fi:class="KUsePattern"><pattern id="pattern_L1_4" width="350" height="350" patternUnits="userSpaceOnUse"><use xlink:href="#L1_4" x="-350" y="-350"/><use xlink:href="#L1_4" x="0" y="-350"/><use xlink:href="#L1_4" x="350" y="-350"/><use xlink:href="#L1_4" x="-350" y="0"/><use xlink:href="#L1_4" x="0" y="0"/><use xlink:href="#L1_4" x="350" y="0"/><use xlink:href="#L1_4" x="-350" y="350"/><use xlink:href="#L1_4" x="0" y="350"/><use xlink:href="#L1_4" x="350" y="350"/></pattern><rect x="0" y="0" width="100%" height="100%" fill="url(#pattern_L1_4)"/></g><g fi:class="KUsePattern"><pattern id="pattern_L1_5" width="350" height="350" patternUnits="userSpaceOnUse"><use xlink:href="#L1_5" x="-350" y="-350"/><use xlink:href="#L1_5" x="0" y="-350"/><use xlink:href="#L1_5" x="350" y="-350"/><use xlink:href="#L1_5" x="-350" y="0"/><use xlink:href="#L1_5" x="0" y="0"/><use xlink:href="#L1_5" x="350" y="0"/><use xlink:href="#L1_5" x="-350" y="350"/><use xlink:href="#L1_5" x="0" y="350"/><use xlink:href="#L1_5" x="350" y="350"/></pattern><rect x="0" y="0" width="100%" height="100%" fill="url(#pattern_L1_5)"/></g><g fi:class="KUsePattern"><pattern id="pattern_L1_6" width="350" height="350" patternUnits="userSpaceOnUse"><use xlink:href="#L1_6" x="-350" y="-350"/><use xlink:href="#L1_6" x="0" y="-350"/><use xlink:href="#L1_6" x="350" y="-350"/><use xlink:href="#L1_6" x="-350" y="0"/><use xlink:href="#L1_6" x="0" y="0"/><use xlink:href="#L1_6" x="350" y="0"/><use xlink:href="#L1_6" x="-350" y="350"/><use xlink:href="#L1_6" x="0" y="350"/><use xlink:href="#L1_6" x="350" y="350"/></pattern><rect x="0" y="0" width="100%" height="100%" fill="url(#pattern_L1_6)"/></g></svg>