<?xml version="1.0" encoding="UTF-8" standalone="no"?><!DOCTYPE svg PUBLIC "-//W3C//DTD SVG 1.1//EN" "http://www.w3.org/Graphics/SVG/1.1/DTD/svg11.dtd"><svg width="100%" height="100%" viewBox="0 0 96 84" version="1.1" xmlns="http://www.w3.org/2000/svg" xmlns:xlink="http://www.w3.org/1999/xlink" xml:space="preserve" xmlns:serif="http://www.serif.com/" style="fill-rule:evenodd;clip-rule:evenodd;stroke-linecap:round;stroke-linejoin:round;stroke-miterlimit:1.5;"><g><g id="smooth-palm" serif:id="smooth palm"><path d="M53.23,32.582l-0.001,-0.001c-0.533,0.114 -1.036,0.467 -1.372,0.946c-0.712,1.013 -0.461,2.419 0.561,3.137c1.021,0.717 2.429,0.477 3.141,-0.536c0.343,-0.489 0.476,-1.078 0.394,-1.628l0,0c0,0 -0.069,-0.482 -0.146,-1.016c-0.052,-0.367 -0.255,-0.695 -0.559,-0.906c-0.305,-0.212 -0.683,-0.287 -1.045,-0.208c-0.514,0.112 -0.973,0.212 -0.973,0.212Z" style="fill:#9c0d11;"/><path d="M58.94,35.174c-0.044,0.238 -0.095,0.475 -0.153,0.71c-0.745,3.085 -5.742,24.556 -4.255,38.681c1.606,15.249 -2.262,4.389 -9.497,3.782c-8.123,-0.683 6.282,-35.946 9.114,-42.691c0.309,-0.727 0.571,-1.473 0.784,-2.234c0.503,-1.791 1.477,-5.27 1.972,-7.035c0.174,-0.624 0.776,-1.029 1.42,-0.955c0,0 0.001,0 0.001,0c0.666,0.076 1.208,0.57 1.345,1.226c0.085,0.405 0.18,0.858 0.261,1.244c0.125,0.598 0.132,1.215 0.021,1.816c-0.28,1.509 -0.828,4.462 -1.013,5.456Z" style="fill:#7f6f6f;"/><path d="M54.453,27.553c0,0 10.164,4.229 14.784,7.515c4.62,3.286 12.935,12.203 12.935,12.203c1.457,-3.058 -2.545,-9.061 -9.612,-14.088c-7.068,-5.028 -14.768,-7.348 -18.107,-5.63Z" style="fill:#2a2a2a;stroke:#47ac4d;stroke-width:5.95px;"/><path d="M58.13,28.361c0,0 10.907,-1.498 16.554,-1.002c5.648,0.496 17.333,3.977 17.333,3.977c-0.291,-3.374 -6.781,-6.526 -15.421,-7.285c-8.64,-0.758 -16.455,1.138 -18.466,4.31Z" style="fill:#2a2a2a;stroke:#47ac4d;stroke-width:5.95px;"/><path d="M57.877,28.604c0,0 8.478,-7.023 13.538,-9.58c5.06,-2.557 16.824,-5.76 16.824,-5.76c-2.027,-2.713 -9.203,-1.97 -16.944,1.941c-7.741,3.911 -13.382,9.643 -13.418,13.399Z" style="fill:#2a2a2a;stroke:#47ac4d;stroke-width:5.95px;"/><path d="M59.884,29.419c0,0 0.143,-2.599 0.218,-4.822c0.107,-3.13 0.244,-6.465 1.082,-9.041c1.434,-4.406 7.302,-12.571 7.302,-12.571c-4.032,-1.069 -8.732,2.995 -10.926,9.735c-2.193,6.74 -1.125,13.836 2.324,16.699Z" style="fill:#2a2a2a;stroke:#47ac4d;stroke-width:5.19px;"/><path d="M60.894,29.147c0,0 -1.578,2.117 -2.749,0.68c-0.581,-0.713 -1.115,-0.301 -1.518,-0.189c-3.744,1.037 -9.415,3.294 -12.525,4.979c-4.984,2.702 -14.092,10.833 -14.092,10.833c-1.386,-3.606 3.075,-9.384 10.701,-13.517c7.625,-4.133 16.767,-5.291 20.183,-2.786Z" style="fill:#2a2a2a;stroke:#47ac4d;stroke-width:5.95px;"/><path d="M58.25,29.737c0,0 -10.572,-3.071 -16.231,-3.404c-5.66,-0.333 -17.727,1.408 -17.727,1.408c0.78,-3.296 7.659,-5.468 16.318,-4.959c6.2,0.364 11.785,1.337 15.016,3.504c1.281,0.86 2.191,2.477 2.624,3.451Z" style="fill:#2a2a2a;stroke:#47ac4d;stroke-width:5.95px;"/><path d="M56.233,29.759c0,0 -5.022,-8.618 -8.677,-11.962c-3.655,-3.345 -13.255,-8.106 -13.255,-8.106c2.967,-2.772 9.309,-1.199 14.902,3.918c3.482,3.186 5.796,8.002 6.788,11.473c0.601,2.102 0.799,3.117 0.242,4.677Z" style="fill:#2a2a2a;stroke:#47ac4d;stroke-width:5.95px;"/><path d="M58.468,35.02l-0.002,0c-0.198,0.508 -0.181,1.122 0.033,1.666c0.453,1.153 1.764,1.718 2.926,1.261c1.163,-0.457 1.738,-1.763 1.285,-2.916c-0.218,-0.556 -0.637,-0.991 -1.141,-1.226l0,-0.001c0,0 -0.44,-0.207 -0.928,-0.438c-0.335,-0.158 -0.721,-0.17 -1.065,-0.032c-0.344,0.137 -0.615,0.412 -0.749,0.757c-0.19,0.491 -0.359,0.929 -0.359,0.929Z" style="fill:#9c0d11;"/><path d="M54.611,34.786l-0.002,0.001c-0.198,0.507 -0.181,1.121 0.033,1.665c0.453,1.153 1.764,1.718 2.926,1.261c1.163,-0.456 1.738,-1.763 1.285,-2.916c-0.218,-0.555 -0.637,-0.991 -1.141,-1.226l0,0c0,0 -0.44,-0.208 -0.928,-0.438c-0.335,-0.159 -0.721,-0.17 -1.065,-0.033c-0.344,0.138 -0.615,0.412 -0.749,0.757c-0.19,0.491 -0.359,0.929 -0.359,0.929Z" style="fill:#9c0d11;"/><path d="M57.646,38.512c-0.364,0.145 -2.559,0.768 -3.75,-0.527" style="fill:none;stroke:#2a2a2a;stroke-width:0.59px;"/></g><text x="-0.284px" y="68.246px" style="font-family:'CooperBlack', 'Cooper Black', serif;font-size:36.247px;fill:#b3191e;">p<tspan x="22.479px 41.869px 50.419px 58.97px " y="68.246px 68.246px 68.246px 68.246px ">a  m</tspan></text><path d="M62.914,72.697c1.4,0 2.1,0.31 2.1,0.929c0,0.168 -0.036,0.305 -0.108,0.411c-0.072,0.106 -0.209,0.223 -0.411,0.353c-0.174,0.115 -0.285,0.266 -0.333,0.454c-0.047,0.187 -0.07,0.566 -0.07,1.138c0,0.336 0.058,0.542 0.175,0.619c0.067,0.048 0.169,0.077 0.306,0.087c0.137,0.009 0.458,0.014 0.965,0.014c0.462,0 0.749,-0.026 0.862,-0.079c0.112,-0.053 0.168,-0.185 0.168,-0.396c0,-0.634 -0.027,-1.076 -0.081,-1.326c-0.054,-0.249 -0.159,-0.42 -0.316,-0.511c-0.198,-0.12 -0.328,-0.222 -0.39,-0.306c-0.063,-0.084 -0.095,-0.196 -0.095,-0.335c0,-0.197 0.07,-0.376 0.209,-0.537c0.139,-0.161 0.321,-0.27 0.545,-0.328c0.466,-0.12 1.052,-0.18 1.756,-0.18c0.825,0 1.434,0.081 1.827,0.242c0.392,0.161 0.589,0.411 0.589,0.752c0,0.289 -0.139,0.505 -0.418,0.649c-0.175,0.086 -0.289,0.169 -0.343,0.248c-0.054,0.079 -0.096,0.227 -0.128,0.443c-0.018,0.12 -0.04,0.653 -0.067,1.599c-0.027,0.946 -0.04,1.698 -0.04,2.255c0,0.975 0.033,1.594 0.101,1.858c0.036,0.144 0.076,0.24 0.121,0.288c0.045,0.048 0.186,0.144 0.424,0.289c0.17,0.1 0.255,0.254 0.255,0.461c0,0.365 -0.203,0.63 -0.609,0.796c-0.405,0.165 -1.064,0.248 -1.974,0.248c-0.799,0 -1.389,-0.084 -1.77,-0.252c-0.345,-0.154 -0.518,-0.391 -0.518,-0.713c0,-0.274 0.132,-0.488 0.397,-0.641c0.13,-0.077 0.219,-0.154 0.266,-0.231c0.047,-0.077 0.093,-0.218 0.138,-0.425c0.08,-0.403 0.121,-0.898 0.121,-1.484c0,-0.302 -0.042,-0.489 -0.125,-0.561c-0.083,-0.072 -0.299,-0.109 -0.649,-0.109c-0.803,0 -1.314,0.049 -1.534,0.145c-0.09,0.038 -0.146,0.151 -0.168,0.338c-0.027,0.231 -0.041,0.514 -0.041,0.85c0,0.548 0.072,0.941 0.216,1.181c0.049,0.077 0.166,0.176 0.35,0.296c0.188,0.115 0.282,0.305 0.282,0.569c0,0.336 -0.217,0.593 -0.652,0.77c-0.436,0.178 -1.057,0.267 -1.864,0.267c-0.736,0 -1.337,-0.082 -1.803,-0.245c-0.202,-0.072 -0.36,-0.174 -0.475,-0.306c-0.114,-0.132 -0.171,-0.277 -0.171,-0.436c0,-0.158 0.035,-0.281 0.107,-0.367c0.072,-0.087 0.229,-0.197 0.471,-0.332c0.126,-0.067 0.214,-0.153 0.266,-0.259c0.052,-0.105 0.091,-0.283 0.118,-0.533c0.067,-0.562 0.101,-1.296 0.101,-2.204c0,-0.168 -0.003,-0.367 -0.007,-0.598c-0.018,-1.152 -0.027,-1.81 -0.027,-1.974c0.005,-0.413 -0.028,-0.685 -0.098,-0.817c-0.069,-0.132 -0.252,-0.277 -0.548,-0.436c-0.197,-0.101 -0.296,-0.252 -0.296,-0.454c0,-0.485 0.44,-0.821 1.319,-1.008c0.511,-0.111 1.036,-0.166 1.574,-0.166Z" style="fill:#29822a;fill-rule:nonzero;"/><path d="M86.013,82.681l-0.902,0.007c-0.632,0.01 -1.094,0.024 -1.386,0.043c-0.26,0.024 -0.446,0.036 -0.558,0.036c-0.274,0 -0.491,-0.074 -0.653,-0.223c-0.157,-0.149 -0.235,-0.327 -0.235,-0.533c0,-0.135 0.029,-0.24 0.087,-0.317c0.058,-0.077 0.2,-0.197 0.424,-0.36c0.13,-0.096 0.22,-0.246 0.269,-0.45c0.049,-0.205 0.103,-0.643 0.162,-1.315c0.085,-1.047 0.127,-2.336 0.127,-3.868c0,-0.562 -0.034,-0.935 -0.104,-1.12c-0.069,-0.185 -0.232,-0.338 -0.488,-0.458c-0.296,-0.134 -0.444,-0.331 -0.444,-0.59c0,-0.212 0.089,-0.384 0.266,-0.519c0.177,-0.134 0.405,-0.202 0.683,-0.202c0.153,0 0.348,0.008 0.585,0.022c0.395,0.019 0.821,0.029 1.279,0.029c0.336,0 0.998,-0.015 1.985,-0.043c0.309,-0.01 0.59,-0.015 0.841,-0.015c0.596,0 1.077,0.052 1.443,0.155c0.366,0.103 0.683,0.277 0.952,0.522c0.44,0.399 0.659,0.932 0.659,1.599c0,0.332 -0.065,0.655 -0.195,0.969c-0.13,0.315 -0.305,0.566 -0.525,0.753c-0.157,0.134 -0.235,0.257 -0.235,0.367c0,0.12 0.094,0.221 0.283,0.303c0.367,0.158 0.702,0.425 1.002,0.799c0.31,0.389 0.464,0.877 0.464,1.463c0,0.691 -0.235,1.323 -0.706,1.894c-0.624,0.754 -1.545,1.131 -2.766,1.131c-0.165,0 -0.574,-0.012 -1.224,-0.036c-0.592,-0.024 -0.956,-0.038 -1.09,-0.043Zm0.464,-7.816l0,1.484c0,0.235 0.028,0.401 0.084,0.497c0.056,0.096 0.154,0.144 0.293,0.144c0.332,0 0.576,-0.109 0.733,-0.327c0.157,-0.219 0.236,-0.561 0.236,-1.027c0,-0.451 -0.081,-0.801 -0.242,-1.048c-0.162,-0.247 -0.391,-0.371 -0.687,-0.371c-0.157,0 -0.265,0.047 -0.326,0.141c-0.061,0.093 -0.091,0.262 -0.091,0.507Zm0,4.149l0,0.685c0,0.629 0.043,1.047 0.128,1.253c0.085,0.206 0.258,0.31 0.518,0.31c0.682,0 1.023,-0.428 1.023,-1.282c0,-1.066 -0.381,-1.6 -1.144,-1.6c-0.197,0 -0.334,0.046 -0.41,0.137c-0.077,0.092 -0.115,0.257 -0.115,0.497Z" style="fill:#29822a;fill-rule:nonzero;"/><path d="M80.193,75.635l0.003,0c0.762,0.799 1.192,1.954 1.192,3.122c0,2.476 -2.088,4.485 -4.66,4.485c-2.573,0 -4.661,-2.009 -4.661,-4.485c0,-1.193 0.474,-2.309 1.264,-3.115l0,0c0,0 1.477,-1.522 2.505,-2.581c0.253,-0.261 0.601,-0.407 0.965,-0.405c0.363,0.002 0.71,0.152 0.96,0.416c1.002,1.056 2.432,2.563 2.432,2.563Z" style="fill:#b3191e;"/><ellipse cx="76.713" cy="78.597" rx="2.168" ry="2.103" style="fill:#fff;"/></g></svg>