<svg id="Capa_1" enable-background="new 0 0 512 512" height="512" viewBox="0 0 512 512" width="512" xmlns="http://www.w3.org/2000/svg"><g><g><g><g><g><g><circle cx="256" cy="256" fill="#78d464" r="256"/></g></g></g></g></g><path d="m512 256c0-1.959-.022-3.913-.066-5.861l-149.908-149.908-216.266 207.65 86.553 86.553-65.385 59.968 55.403 55.404c11.018 1.447 22.256 2.194 33.669 2.194 141.385 0 256-114.615 256-256z" fill="#6cbd5a"/><g><path d="m345.073 454.402-89.073-40.436-89.073 40.436v-234.563h178.146z" fill="#e06a24"/></g><g><path d="m345.073 219.839h-89.073v194.127l89.073 40.436z" fill="#d24611"/></g><g><circle cx="256" cy="206.257" fill="#f1cc30" r="149.943"/></g><g><path d="m256 56.313v299.887c82.812 0 149.943-67.132 149.943-149.943s-67.131-149.944-149.943-149.944z" fill="#ecb931"/></g><g><circle cx="256" cy="206.257" fill="#e9a727" r="106.026"/></g><g><path d="m256 100.231v212.052c58.557 0 106.026-47.469 106.026-106.026s-47.469-106.026-106.026-106.026z" fill="#e69423"/></g><g><path d="m256 115.336 25.67 53.54 57.399 8.585-41.534 41.675 9.804 58.847-51.339-27.784-51.339 27.784 9.804-58.847-41.534-41.675 57.399-8.585z" fill="#fff"/></g><g><path d="m339.069 177.461-57.399-8.585-25.67-53.54v134.863l51.339 27.783-9.805-58.846z" fill="#e9ecf4"/></g></g></svg>